<?xml version="1.0" encoding="utf-8"?>
<!-- Generator: Adobe Illustrator 25.1.0, SVG Export Plug-In . SVG Version: 6.00 Build 0)  -->
<svg version="1.1" id="Layer_1" xmlns="http://www.w3.org/2000/svg"
  xmlns:xlink="http://www.w3.org/1999/xlink" x="0px" y="0px"
  viewBox="0 0 44 30" style="enable-background:new 0 0 44 30;" xml:space="preserve">
<style type="text/css">
	.st0{fill:none;stroke:#FFF;stroke-width:3;}
</style>
<path class="st0" d="M0,28.4h0.5c2.1,0,3.9-1.3,4.6-3.3l2-6c0.4-1.3,1.3-2.4,2.4-3.1l1.6-1c1.1-0.7,1.9-1.7,2.3-2.8l2.2-5.7
	c0.5-1.4,1.6-2.5,2.9-3.2L18.9,3c2.4-1.2,5.2-0.7,7,1.2l0.8,0.9c1.1,1.1,1.6,2.6,1.6,4.1v1.7c0,1.8,0.8,3.6,2.3,4.7l0.4,0.3
	c0.9,0.7,1.6,1.7,2,2.8l1.4,4.2c0.6,1.8,2,3.2,3.7,3.8c0,0,4.1,1.7,4.8,1.7s1.1,0,1.1,0"/>
</svg>