<?xml version="1.0" standalone="no"?>
<!DOCTYPE svg PUBLIC "-//W3C//DTD SVG 20010904//EN"
 "http://www.w3.org/TR/2001/REC-SVG-20010904/DTD/svg10.dtd">
<svg version="1.0" xmlns="http://www.w3.org/2000/svg"
 width="338.000000pt" height="338.000000pt" viewBox="0 0 338.000000 338.000000"
 preserveAspectRatio="xMidYMid meet">
<metadata>
Created by potrace 1.14, written by Peter Selinger 2001-2017
</metadata>
<g transform="translate(0.000000,338.000000) scale(0.100000,-0.100000)"
fill="#000000" stroke="none">
<path d="M563 2460 c-48 -50 -88 -95 -88 -100 0 -11 175 -190 185 -190 3 0 48
43 100 95 l94 96 -94 94 c-52 52 -98 95 -101 95 -4 0 -47 -41 -96 -90z"/>
<path d="M2847 2449 c-130 -21 -257 -112 -322 -230 -46 -85 -62 -154 -60 -254
3 -102 6 -116 34 -181 12 -26 19 -49 16 -52 -8 -9 -234 -9 -297 0 -34 4 -75
17 -93 28 -51 31 -57 58 -42 176 4 27 10 74 13 104 3 30 8 58 10 62 8 14 -5
17 -136 32 -19 3 -56 8 -82 11 -40 5 -48 4 -49 -9 -1 -9 -2 -19 -3 -23 -1 -5
-6 -35 -10 -68 -4 -32 -10 -68 -12 -80 -2 -11 -7 -33 -10 -50 -20 -115 -52
-155 -136 -176 -71 -16 -213 -19 -272 -4 -81 21 -94 37 -133 165 -27 92 -75
218 -89 238 -2 3 -259 -133 -273 -144 -2 -2 20 -60 49 -131 71 -174 96 -260
106 -366 7 -77 1 -99 -43 -148 -70 -77 -185 -117 -340 -117 -181 -1 -293 59
-354 187 -17 36 -22 64 -22 131 0 96 17 167 69 279 19 41 34 77 34 81 0 5 -15
17 -32 28 -18 11 -60 36 -92 56 -33 20 -65 35 -72 32 -20 -8 -101 -152 -134
-239 -61 -156 -78 -339 -46 -476 49 -209 198 -354 423 -412 148 -38 360 -31
494 16 191 68 344 236 381 420 l11 57 41 -8 c23 -5 95 -8 161 -8 172 1 273 34
362 119 l42 41 36 -43 c20 -24 58 -55 85 -68 90 -46 157 -55 360 -50 102 2
203 7 225 9 22 3 63 8 90 11 28 3 61 7 75 9 14 2 48 8 75 12 28 4 52 8 55 9 3
1 25 5 50 9 69 12 261 63 302 80 39 17 44 25 53 101 4 28 10 73 15 100 21 116
21 137 2 131 -32 -9 -246 -49 -332 -61 -24 -4 -47 -8 -51 -11 -12 -7 -123 27
-171 53 -134 73 -125 229 16 288 76 32 224 22 304 -19 28 -14 28 -14 87 62 32
42 60 84 62 92 3 13 -38 60 -111 126 -60 56 -212 90 -319 73z"/>
<path d="M1588 1117 l-95 -94 95 -95 95 -95 87 89 87 90 84 -86 c46 -47 86
-86 90 -86 3 0 47 41 98 92 l92 91 -94 95 -94 94 -87 -88 -86 -88 -88 87 -88
88 -96 -94z"/>
</g>
</svg>
